# xmcd
# Track frame offsets:
# 150
# 13304
# 21774
# 29890
# 36021
# 44796
# 54865
# 60188
# 70651
# 79019
# 92568
# 101193
# 113895
# 121911
# 129018
# 139819
# 151730
# 159624
# 171123
# 182535
# 192364
# 203559
# 214246
# 226006
# 237207
# 246233
#
# Disc length: 3420 seconds
# Revision: 0
# Processed by: cddbd v1.5PL3 Copyright (c) Steve Scherf et al.
# Submitted via: VisiTrax 2.9.9.202 - For more info visit www.synapsa.com
#
DISCID=580d5a1a
DTITLE=Rex Allen and His Arizona Wranglers with Bonnie Allen - Riding All Da
DTITLE=y - The Life Of A Cowboy
DYEAR=2000
DGENRE=Country
TTITLE0=Rex Allen and His Arizona Wranglers - Partners Of The Saddle
TTITLE1=Rex Allen and His Arizona Wranglers with Bonnie Allen - She Buckaroo
TTITLE2=Rex Allen and His Arizona Wranglers - Headin' For The Open Range
TTITLE3=Rex Allen and His Arizona Wranglers - My Miss By The Swiss Chalet
TTITLE4=Rex Allen and His Arizona Wranglers - My Cross Eyed Girl
TTITLE5=Rex Allen and His Arizona Wranglers - Riding All Day
TTITLE6=Rex Allen and His Arizona Wranglers with Bonnie Allen - I Want To Be A C
TTITLE6=owboy's Dreamgirl
TTITLE7=Rex Allen and His Arizona Wranglers - Mountain Home
TTITLE8=Rex Allen and His Arizona Wranglers - The Girl I Left Behind Me
TTITLE9=Rex Allen and His Arizona Wranglers - Home On The Range
TTITLE10=Rex Allen and His Arizona Wranglers - The Covered Wagon
TTITLE11=Rex Allen and His Arizona Wranglers - Chiquita
TTITLE12=Rex Allen and His Arizona Wranglers - The Life Of A Cowboy
TTITLE13=Rex Allen and His Arizona Wranglers - Going Back To My Texas Home
TTITLE14=Rex Allen and His Arizona Wranglers - Bad Brahma Bull
TTITLE15=Rex Allen and His Arizona Wranglers with Bonnie Allen - Night Time In Th
TTITLE15=e West
TTITLE16=Rex Allen and His Arizona Wranglers - Hold On Little Doggie
TTITLE17=Rex Allen and His Arizona Wranglers - Ridin' Down The Canyon
TTITLE18=Rex Allen and His Arizona Wranglers with Bonnie Allen - When The Campfir
TTITLE18=e Is Low On The Prairie
TTITLE19=Rex Allen and His Arizona Wranglers - Yodelin' Crazy
TTITLE20=Rex Allen and His Arizona Wranglers - Cielito Lindo
TTITLE21=Rex Allen and His Arizona Wranglers - Strawberry Roan
TTITLE22=Rex Allen and His Arizona Wranglers - Memories Of The Range
TTITLE23=Rex Allen and His Arizona Wranglers - Dreaming Of The Western Plains
TTITLE24=Rex Allen and His Arizona Wranglers - Little Girl Dressed In Blue
TTITLE25=Rex Allen and His Arizona Wranglers - My Old Adobe Shack
EXTD=
EXTT0=
EXTT1=
EXTT2=
EXTT3=
EXTT4=
EXTT5=
EXTT6=
EXTT7=
EXTT8=
EXTT9=
EXTT10=
EXTT11=
EXTT12=
EXTT13=
EXTT14=
EXTT15=
EXTT16=
EXTT17=
EXTT18=
EXTT19=
EXTT20=
EXTT21=
EXTT22=
EXTT23=
EXTT24=
EXTT25=
PLAYORDER=
